
          <svg
            width="1206"
            height="159"
            viewBox="0 0 1206 159"
            fill="none"
            xmlns="http://www.w3.org/2000/svg"
            id="header-text"
          >
            <path
              d="M53.1579 120.008C43.6539 120.008 34.9179 117.8 26.9499 113.384C18.9819 108.872 12.6459 102.68 7.94188 94.808C3.33388 86.84 1.02988 77.864 1.02988 67.88C1.02988 57.896 3.33388 48.968 7.94188 41.096C12.6459 33.128 18.9819 26.936 26.9499 22.52C34.9179 18.104 43.6539 15.896 53.1579 15.896C62.7579 15.896 71.4939 18.104 79.3659 22.52C87.3339 26.936 93.6219 33.128 98.2299 41.096C102.838 48.968 105.142 57.896 105.142 67.88C105.142 77.864 102.838 86.84 98.2299 94.808C93.6219 102.68 87.3339 108.872 79.3659 113.384C71.3979 117.8 62.6619 120.008 53.1579 120.008ZM53.1579 93.8C60.3579 93.8 66.0219 91.448 70.1499 86.744C74.3739 82.04 76.4859 75.752 76.4859 67.88C76.4859 59.816 74.3739 53.48 70.1499 48.872C66.0219 44.168 60.3579 41.816 53.1579 41.816C45.8619 41.816 40.1499 44.168 36.0219 48.872C31.8939 53.48 29.8299 59.816 29.8299 67.88C29.8299 75.848 31.8939 82.184 36.0219 86.888C40.1499 91.496 45.8619 93.8 53.1579 93.8ZM200.486 38.216V119H172.118V107.48C169.718 111.128 166.406 114.104 162.182 116.408C157.958 118.616 153.11 119.72 147.638 119.72C138.23 119.72 130.79 116.648 125.318 110.504C119.942 104.264 117.254 95.816 117.254 85.16V38.216H145.334V81.56C145.334 86.168 146.534 89.816 148.934 92.504C151.43 95.096 154.694 96.392 158.726 96.392C162.854 96.392 166.118 95.096 168.518 92.504C170.918 89.816 172.118 86.168 172.118 81.56V38.216H200.486ZM244.772 52.472C247.94 47.864 251.78 44.216 256.292 41.528C260.804 38.84 265.652 37.496 270.836 37.496V67.592H262.916C256.772 67.592 252.212 68.792 249.236 71.192C246.26 73.592 244.772 77.768 244.772 83.72V119H216.548V38.216H244.772V52.472Z"
              fill="white"
            />
            <path
              d="M26.9499 113.384L26.4571 114.254L26.4651 114.259L26.9499 113.384ZM7.94188 94.808L7.07621 95.3086L7.07979 95.3148L7.08346 95.321L7.94188 94.808ZM7.94188 41.096L7.08074 40.5876L7.07886 40.5908L7.94188 41.096ZM79.3659 22.52L78.8766 23.3922L78.8811 23.3947L79.3659 22.52ZM98.2299 41.096L97.3642 41.5966L97.3669 41.6012L98.2299 41.096ZM98.2299 94.808L99.0929 95.3132L99.0955 95.3086L98.2299 94.808ZM79.3659 113.384L79.8506 114.259L79.8586 114.254L79.3659 113.384ZM70.1499 86.744L69.4058 86.0758L69.3983 86.0844L70.1499 86.744ZM70.1499 48.872L69.3983 49.5316L69.4054 49.5397L69.4127 49.5477L70.1499 48.872ZM36.0219 48.872L36.7668 49.5393L36.7735 49.5316L36.0219 48.872ZM36.0219 86.888L35.2702 87.5476L35.277 87.5552L36.0219 86.888ZM53.1579 119.008C43.8159 119.008 35.2478 116.84 27.4346 112.509L26.4651 114.259C34.588 118.76 43.4919 121.008 53.1579 121.008V119.008ZM27.4426 112.514C19.6256 108.087 13.4155 102.019 8.80029 94.295L7.08346 95.321C11.8762 103.341 18.3381 109.657 26.4571 114.254L27.4426 112.514ZM8.80754 94.3074C4.29492 86.5043 2.02988 77.7036 2.02988 67.88H0.0298752C0.0298752 78.0244 2.37283 87.1757 7.07621 95.3086L8.80754 94.3074ZM2.02988 67.88C2.02988 58.0563 4.29494 49.3057 8.80489 41.6012L7.07886 40.5908C2.37281 48.6303 0.0298752 57.7357 0.0298752 67.88H2.02988ZM8.80301 41.6044C13.4179 33.7873 19.625 27.7229 27.4346 23.3947L26.4651 21.6453C18.3387 26.1491 11.8738 32.4687 7.08074 40.5876L8.80301 41.6044ZM27.4346 23.3947C35.2478 19.0645 43.8159 16.896 53.1579 16.896V14.896C43.4919 14.896 34.588 17.1435 26.4651 21.6453L27.4346 23.3947ZM53.1579 16.896C62.5978 16.896 71.1636 19.0653 78.8766 23.3921L79.8551 21.6479C71.8242 17.1427 62.918 14.896 53.1579 14.896V16.896ZM78.8811 23.3947C86.6889 27.7218 92.846 33.7838 97.3642 41.5966L99.0955 40.5954C94.3978 32.4722 87.9789 26.1502 79.8506 21.6453L78.8811 23.3947ZM97.3669 41.6012C101.877 49.3057 104.142 58.0563 104.142 67.88H106.142C106.142 57.7357 103.799 48.6303 99.0929 40.5908L97.3669 41.6012ZM104.142 67.88C104.142 77.7036 101.877 86.5043 97.3642 94.3074L99.0955 95.3086C103.799 87.1757 106.142 78.0244 106.142 67.88H104.142ZM97.3669 94.3028C92.8483 102.022 86.6883 108.088 78.8731 112.514L79.8586 114.254C87.9794 109.656 94.3954 103.338 99.0929 95.3132L97.3669 94.3028ZM78.8811 112.509C71.068 116.84 62.4999 119.008 53.1579 119.008V121.008C62.8239 121.008 71.7278 118.76 79.8506 114.259L78.8811 112.509ZM53.1579 94.8C60.5978 94.8 66.5541 92.3576 70.9015 87.4036L69.3983 86.0844C65.4896 90.5384 60.118 92.8 53.1579 92.8V94.8ZM70.8939 87.4121C75.3204 82.4826 77.4859 75.9357 77.4859 67.88H75.4859C75.4859 75.5683 73.4273 81.5974 69.4058 86.0759L70.8939 87.4121ZM77.4859 67.88C77.4859 59.6407 75.3247 53.0373 70.887 48.1963L69.4127 49.5477C73.4231 53.9227 75.4859 59.9913 75.4859 67.88H77.4859ZM70.9015 48.2124C66.5541 43.2584 60.5978 40.816 53.1579 40.816V42.816C60.118 42.816 65.4896 45.0776 69.3983 49.5316L70.9015 48.2124ZM53.1579 40.816C45.6267 40.816 39.6203 43.2554 35.2703 48.2124L36.7735 49.5316C40.6795 45.0806 46.0971 42.816 53.1579 42.816V40.816ZM35.277 48.2047C30.94 53.0461 28.8299 59.6463 28.8299 67.88H30.8299C30.8299 59.9857 32.8478 53.9139 36.7667 49.5392L35.277 48.2047ZM28.8299 67.88C28.8299 76.0224 30.9422 82.6157 35.2703 87.5476L36.7735 86.2284C32.8455 81.7523 30.8299 75.6735 30.8299 67.88H28.8299ZM35.277 87.5552C39.6291 92.4133 45.6334 94.8 53.1579 94.8V92.8C46.0903 92.8 40.6707 90.5787 36.7667 86.2208L35.277 87.5552ZM200.486 38.216H201.486V37.216H200.486V38.216ZM200.486 119V120H201.486V119H200.486ZM172.118 119H171.118V120H172.118V119ZM172.118 107.48H173.118V104.141L171.282 106.93L172.118 107.48ZM162.182 116.408L162.645 117.294L162.653 117.29L162.66 117.286L162.182 116.408ZM125.318 110.504L124.56 111.157L124.565 111.163L124.571 111.169L125.318 110.504ZM117.254 38.216V37.216H116.254V38.216H117.254ZM145.334 38.216H146.334V37.216H145.334V38.216ZM148.934 92.504L148.188 93.17L148.2 93.1841L148.213 93.1976L148.934 92.504ZM168.518 92.504L169.251 93.1834L169.258 93.1768L169.264 93.17L168.518 92.504ZM172.118 38.216V37.216H171.118V38.216H172.118ZM199.486 38.216V119H201.486V38.216H199.486ZM200.486 118H172.118V120H200.486V118ZM173.118 119V107.48H171.118V119H173.118ZM171.282 106.93C168.981 110.428 165.798 113.296 161.703 115.53L162.66 117.286C167.013 114.912 170.454 111.828 172.953 108.03L171.282 106.93ZM161.718 115.522C157.657 117.645 152.972 118.72 147.638 118.72V120.72C153.247 120.72 158.258 119.587 162.645 117.294L161.718 115.522ZM147.638 118.72C138.47 118.72 131.318 115.738 126.064 109.839L124.571 111.169C130.261 117.558 137.99 120.72 147.638 120.72V118.72ZM126.075 109.851C120.897 103.841 118.254 95.6483 118.254 85.16H116.254C116.254 95.9837 118.986 104.687 124.56 111.157L126.075 109.851ZM118.254 85.16V38.216H116.254V85.16H118.254ZM117.254 39.216H145.334V37.216H117.254V39.216ZM144.334 38.216V81.56H146.334V38.216H144.334ZM144.334 81.56C144.334 86.3431 145.582 90.2522 148.188 93.17L149.68 91.838C147.485 89.3798 146.334 85.9929 146.334 81.56H144.334ZM148.213 93.1976C150.921 96.0099 154.458 97.392 158.726 97.392V95.392C154.929 95.392 151.938 94.1821 149.654 91.8104L148.213 93.1976ZM158.726 97.392C163.081 97.392 166.63 96.0146 169.251 93.1834L167.784 91.8246C165.605 94.1774 162.626 95.392 158.726 95.392V97.392ZM169.264 93.17C171.869 90.2522 173.118 86.3431 173.118 81.56H171.118C171.118 85.9929 169.966 89.3798 167.772 91.838L169.264 93.17ZM173.118 81.56V38.216H171.118V81.56H173.118ZM172.118 39.216H200.486V37.216H172.118V39.216ZM244.772 52.472H243.772V55.6917L245.596 53.0385L244.772 52.472ZM270.836 37.496H271.836V36.496H270.836V37.496ZM270.836 67.592V68.592H271.836V67.592H270.836ZM249.236 71.192L249.864 71.9704L249.864 71.9704L249.236 71.192ZM244.772 119V120H245.772V119H244.772ZM216.548 119H215.548V120H216.548V119ZM216.548 38.216V37.216H215.548V38.216H216.548ZM244.772 38.216H245.772V37.216H244.772V38.216ZM245.596 53.0385C248.688 48.5416 252.424 44.9965 256.804 42.3871L255.781 40.6689C251.137 43.4355 247.193 47.1864 243.948 51.9055L245.596 53.0385ZM256.804 42.3871C261.164 39.79 265.835 38.496 270.836 38.496V36.496C265.47 36.496 260.445 37.8899 255.781 40.6689L256.804 42.3871ZM269.836 37.496V67.592H271.836V37.496H269.836ZM270.836 66.592H262.916V68.592H270.836V66.592ZM262.916 66.592C256.673 66.592 251.842 67.8059 248.609 70.4136L249.864 71.9704C252.583 69.7781 256.872 68.592 262.916 68.592V66.592ZM248.609 70.4136C245.291 73.0891 243.772 77.6353 243.772 83.72H245.772C245.772 77.9007 247.23 74.0949 249.864 71.9704L248.609 70.4136ZM243.772 83.72V119H245.772V83.72H243.772ZM244.772 118H216.548V120H244.772V118ZM217.548 119V38.216H215.548V119H217.548ZM216.548 39.216H244.772V37.216H216.548V39.216ZM243.772 38.216V52.472H245.772V38.216H243.772ZM336.741 40.088V39.088H335.741V40.088H336.741ZM336.741 56.648H335.741V57.648H336.741V56.648ZM369.141 56.648H370.141V55.648H369.141V56.648ZM369.141 78.104V79.104H370.141V78.104H369.141ZM336.741 78.104V77.104H335.741V78.104H336.741ZM336.741 96.392H335.741V97.392H336.741V96.392ZM373.461 96.392H374.461V95.392H373.461V96.392ZM373.461 119V120H374.461V119H373.461ZM308.517 119H307.517V120H308.517V119ZM308.517 17.48V16.48H307.517V17.48H308.517ZM373.461 17.48H374.461V16.48H373.461V17.48ZM373.461 40.088V41.088H374.461V40.088H373.461ZM335.741 40.088V56.648H337.741V40.088H335.741ZM336.741 57.648H369.141V55.648H336.741V57.648ZM368.141 56.648V78.104H370.141V56.648H368.141ZM369.141 77.104H336.741V79.104H369.141V77.104ZM335.741 78.104V96.392H337.741V78.104H335.741ZM336.741 97.392H373.461V95.392H336.741V97.392ZM372.461 96.392V119H374.461V96.392H372.461ZM373.461 118H308.517V120H373.461V118ZM309.517 119V17.48H307.517V119H309.517ZM308.517 18.48H373.461V16.48H308.517V18.48ZM372.461 17.48V40.088H374.461V17.48H372.461ZM373.461 39.088H336.741V41.088H373.461V39.088ZM437.808 119L436.995 119.582L437.294 120H437.808V119ZM423.264 98.696L424.077 98.1137L423.166 96.8421L422.394 98.2025L423.264 98.696ZM411.744 119V120H412.326L412.614 119.493L411.744 119ZM380.784 119L379.942 118.459L378.952 120H380.784V119ZM407.712 77.096L408.553 77.6366L408.922 77.0631L408.522 76.5105L407.712 77.096ZM379.632 38.216V37.216H377.676L378.821 38.8015L379.632 38.216ZM411.312 38.216L412.125 37.6337L411.826 37.216H411.312V38.216ZM425.856 58.52L425.043 59.1023L425.948 60.3664L426.723 59.0181L425.856 58.52ZM437.52 38.216V37.216H436.941L436.653 37.7179L437.52 38.216ZM468.48 38.216L469.311 38.7714L470.35 37.216H468.48V38.216ZM440.976 79.4L440.144 78.8446L439.759 79.4214L440.164 79.9843L440.976 79.4ZM469.488 119V120H471.44L470.299 118.416L469.488 119ZM438.621 118.418L424.077 98.1137L422.451 99.2783L436.995 119.582L438.621 118.418ZM422.394 98.2025L410.874 118.507L412.614 119.493L424.134 99.1895L422.394 98.2025ZM411.744 118H380.784V120H411.744V118ZM381.625 119.541L408.553 77.6366L406.87 76.5554L379.942 118.459L381.625 119.541ZM408.522 76.5105L380.442 37.6305L378.821 38.8015L406.901 77.6815L408.522 76.5105ZM379.632 39.216H411.312V37.216H379.632V39.216ZM410.499 38.7983L425.043 59.1023L426.669 57.9377L412.125 37.6337L410.499 38.7983ZM426.723 59.0181L438.387 38.7141L436.653 37.7179L424.989 58.0219L426.723 59.0181ZM437.52 39.216H468.48V37.216H437.52V39.216ZM467.648 37.6606L440.144 78.8446L441.807 79.9554L469.311 38.7714L467.648 37.6606ZM440.164 79.9843L468.676 119.584L470.299 118.416L441.787 78.8157L440.164 79.9843ZM469.488 118H437.808V120H469.488V118ZM506.054 49.448H505.054V53.1122L506.915 49.956L506.054 49.448ZM515.414 40.52L514.933 39.6429L514.933 39.6429L515.414 40.52ZM547.094 42.248L546.55 43.0872L546.557 43.0917L547.094 42.248ZM559.478 56.648L558.575 57.0785L558.58 57.0897L559.478 56.648ZM559.478 100.568L558.578 100.132L558.575 100.138L559.478 100.568ZM547.094 114.968L546.557 114.124L546.55 114.129L547.094 114.968ZM515.414 116.696L514.924 117.568L514.933 117.573L515.414 116.696ZM506.054 107.768L506.905 107.244L505.054 104.235V107.768H506.054ZM506.054 157.592V158.592H507.054V157.592H506.054ZM477.83 157.592H476.83V158.592H477.83V157.592ZM477.83 38.216V37.216H476.83V38.216H477.83ZM506.054 38.216H507.054V37.216H506.054V38.216ZM531.11 66.296L530.379 66.9792L530.391 66.9913L530.403 67.0031L531.11 66.296ZM510.23 66.296L509.511 65.6006L509.505 65.6067L509.499 65.6128L510.23 66.296ZM510.23 90.92L509.499 91.6032L509.505 91.6093L509.511 91.6154L510.23 90.92ZM531.11 90.92L530.38 90.2361L530.379 90.2368L531.11 90.92ZM506.915 49.956C509.026 46.3761 512.01 43.5238 515.894 41.3971L514.933 39.6429C510.753 41.9322 507.497 45.0319 505.192 48.94L506.915 49.956ZM515.894 41.3971C519.753 39.2838 524.334 38.208 529.67 38.208V36.208C524.062 36.208 519.138 37.3402 514.933 39.6429L515.894 41.3971ZM529.67 38.208C535.917 38.208 541.535 39.8366 546.55 43.0871L547.638 41.4088C542.285 37.9394 536.286 36.208 529.67 36.208V38.208ZM546.557 43.0917C551.662 46.3406 555.671 50.9895 558.575 57.0785L560.38 56.2175C557.332 49.8265 553.085 44.8754 547.631 41.4043L546.557 43.0917ZM558.58 57.0897C561.573 63.1674 563.086 70.3068 563.086 78.536H565.086C565.086 70.0612 563.527 62.6086 560.375 56.2063L558.58 57.0897ZM563.086 78.536C563.086 86.7648 561.573 93.9547 558.578 100.132L560.377 101.004C563.527 94.5092 565.086 87.0112 565.086 78.536H563.086ZM558.575 100.138C555.671 106.227 551.662 110.875 546.557 114.124L547.631 115.812C553.085 112.341 557.332 107.389 560.38 100.998L558.575 100.138ZM546.55 114.129C541.535 117.379 535.917 119.008 529.67 119.008V121.008C536.286 121.008 542.285 119.277 547.638 115.807L546.55 114.129ZM529.67 119.008C524.334 119.008 519.753 117.932 515.894 115.819L514.933 117.573C519.138 119.876 524.062 121.008 529.67 121.008V119.008ZM515.903 115.824C512.111 113.697 509.118 110.839 506.905 107.244L505.202 108.292C507.598 112.185 510.844 115.279 514.924 117.568L515.903 115.824ZM505.054 107.768V157.592H507.054V107.768H505.054ZM506.054 156.592H477.83V158.592H506.054V156.592ZM478.83 157.592V38.216H476.83V157.592H478.83ZM477.83 39.216H506.054V37.216H477.83V39.216ZM505.054 38.216V49.448H507.054V38.216H505.054ZM536.43 78.536C536.43 73.0728 534.935 68.7074 531.817 65.5889L530.403 67.0031C533.044 69.6446 534.43 73.4392 534.43 78.536H536.43ZM531.84 65.6128C528.864 62.4318 525.142 60.832 520.742 60.832V62.832C524.597 62.832 527.787 64.2082 530.379 66.9792L531.84 65.6128ZM520.742 60.832C516.342 60.832 512.579 62.4306 509.511 65.6006L510.948 66.9914C513.641 64.2094 516.886 62.832 520.742 62.832V60.832ZM509.499 65.6128C506.499 68.8206 505.054 73.1701 505.054 78.536H507.054C507.054 73.5339 508.393 69.7234 510.96 66.9792L509.499 65.6128ZM505.054 78.536C505.054 83.9922 506.496 88.3922 509.499 91.6032L510.96 90.2368C508.396 87.4958 507.054 83.6398 507.054 78.536H505.054ZM509.511 91.6154C512.579 94.7854 516.342 96.384 520.742 96.384V94.384C516.886 94.384 513.641 93.0066 510.948 90.2246L509.511 91.6154ZM520.742 96.384C525.142 96.384 528.864 94.7842 531.84 91.6032L530.379 90.2368C527.787 93.0078 524.597 94.384 520.742 94.384V96.384ZM531.839 91.6039C534.931 88.306 536.43 83.9123 536.43 78.536H534.43C534.43 83.5277 533.048 87.39 530.38 90.2361L531.839 91.6039ZM652.457 84.296V85.296H653.335L653.448 84.4253L652.457 84.296ZM599.033 84.296V83.296H597.965L598.035 84.3611L599.033 84.296ZM602.633 94.232L601.91 94.9232L601.925 94.9393L601.941 94.9546L602.633 94.232ZM621.065 91.064V90.064H620.434L620.162 90.6333L621.065 91.064ZM651.161 91.064L652.136 91.2827L652.41 90.064H651.161V91.064ZM643.817 106.04L643.046 105.403L643.044 105.405L643.817 106.04ZM630.281 116.264L630.696 117.174L630.696 117.174L630.281 116.264ZM590.825 114.968L590.345 115.845L590.351 115.848L590.825 114.968ZM576.281 100.568L575.406 101.053L575.412 101.063L576.281 100.568ZM576.281 56.648L577.152 57.1383L577.155 57.1325L576.281 56.648ZM590.681 42.248L590.207 41.3675L590.201 41.3706L590.681 42.248ZM633.305 42.104L633.774 41.2209L633.774 41.2209L633.305 42.104ZM647.705 56.216L646.833 56.7063L646.836 56.7121L647.705 56.216ZM624.089 70.616V71.616H625.089V70.616H624.089ZM620.633 62.552L619.974 63.3046L619.983 63.3125L619.992 63.3202L620.633 62.552ZM603.497 62.408L604.134 63.179L604.143 63.1709L604.153 63.1626L603.497 62.408ZM599.177 70.616L598.193 70.4348L597.976 71.616H599.177V70.616ZM651.889 77.672C651.889 79.8364 651.747 82.0012 651.465 84.1667L653.448 84.4253C653.742 82.1748 653.889 79.9236 653.889 77.672H651.889ZM652.457 83.296H599.033V85.296H652.457V83.296ZM598.035 84.3611C598.331 88.9089 599.576 92.4834 601.91 94.9232L603.355 93.5408C601.465 91.5646 600.31 88.5151 600.031 84.2309L598.035 84.3611ZM601.941 94.9546C604.355 97.2631 607.395 98.4 610.985 98.4V96.4C607.854 96.4 605.326 95.4249 603.324 93.5094L601.941 94.9546ZM610.985 98.4C613.49 98.4 615.698 97.8361 617.565 96.6626C619.432 95.489 620.892 93.7465 621.967 91.4947L620.162 90.6333C619.221 92.6055 617.993 94.031 616.5 94.9694C615.007 95.9079 613.184 96.4 610.985 96.4V98.4ZM621.065 92.064H651.161V90.064H621.065V92.064ZM650.185 90.8453C648.971 96.2591 646.594 101.108 643.046 105.403L644.588 106.677C648.335 102.14 650.854 97.0049 652.136 91.2827L650.185 90.8453ZM643.044 105.405C639.596 109.599 635.21 112.916 629.866 115.354L630.696 117.174C636.295 114.62 640.933 111.121 644.589 106.675L643.044 105.405ZM629.866 115.354C624.537 117.785 618.632 119.008 612.137 119.008V121.008C618.889 121.008 625.081 119.735 630.696 117.174L629.866 115.354ZM612.137 119.008C604.313 119.008 597.376 117.36 591.299 114.088L590.351 115.848C596.754 119.296 604.024 121.008 612.137 121.008V119.008ZM591.304 114.091C585.327 110.822 580.612 106.156 577.15 100.073L575.412 101.063C579.053 107.46 584.034 112.394 590.345 115.845L591.304 114.091ZM577.155 100.083C573.795 94.0169 572.097 86.8458 572.097 78.536H570.097C570.097 87.1222 571.854 94.6391 575.406 101.052L577.155 100.083ZM572.097 78.536C572.097 70.2257 573.796 63.1055 577.152 57.1383L575.409 56.1577C571.854 62.4785 570.097 69.9503 570.097 78.536H572.097ZM577.155 57.1325C580.521 51.055 585.186 46.3927 591.16 43.1254L590.201 41.3706C583.887 44.8233 578.952 49.761 575.406 56.1635L577.155 57.1325ZM591.155 43.1285C597.23 39.8572 604.215 38.208 612.137 38.208V36.208C603.93 36.208 596.611 37.9188 590.207 41.3675L591.155 43.1285ZM612.137 38.208C619.965 38.208 626.856 39.8104 632.835 42.9871L633.774 41.2209C627.466 37.8696 620.244 36.208 612.137 36.208V38.208ZM632.835 42.9871C638.808 46.1601 643.47 50.7267 646.833 56.7063L648.576 55.7257C645.028 49.4173 640.089 44.5759 633.774 41.2209L632.835 42.9871ZM646.836 56.7121C650.191 62.5832 651.889 69.5577 651.889 77.672H653.889C653.889 69.2743 652.13 61.9448 648.573 55.7199L646.836 56.7121ZM625.089 70.616C625.089 66.9137 623.841 63.9239 621.273 61.7838L619.992 63.3202C622.032 65.0201 623.089 67.4063 623.089 70.616H625.089ZM621.291 61.7994C618.781 59.6032 615.657 58.528 611.993 58.528V60.528C615.24 60.528 617.876 61.4688 619.974 63.3046L621.291 61.7994ZM611.993 58.528C608.341 58.528 605.262 59.5474 602.84 61.6534L604.153 63.1626C606.147 61.4286 608.732 60.528 611.993 60.528V58.528ZM602.86 61.637C600.423 63.6503 598.895 66.6251 598.193 70.4348L600.16 70.7972C600.802 67.3109 602.155 64.8137 604.134 63.179L602.86 61.637ZM599.177 71.616H624.089V69.616H599.177V71.616ZM692.663 52.472H691.663V55.6917L693.487 53.0385L692.663 52.472ZM718.727 37.496H719.727V36.496H718.727V37.496ZM718.727 67.592V68.592H719.727V67.592H718.727ZM697.127 71.192L697.755 71.9704L697.755 71.9704L697.127 71.192ZM692.663 119V120H693.663V119H692.663ZM664.439 119H663.439V120H664.439V119ZM664.439 38.216V37.216H663.439V38.216H664.439ZM692.663 38.216H693.663V37.216H692.663V38.216ZM693.487 53.0385C696.579 48.5416 700.315 44.9965 704.695 42.3871L703.671 40.6689C699.027 43.4355 695.083 47.1864 691.839 51.9055L693.487 53.0385ZM704.695 42.3871C709.054 39.79 713.726 38.496 718.727 38.496V36.496C713.36 36.496 708.336 37.8899 703.671 40.6689L704.695 42.3871ZM717.727 37.496V67.592H719.727V37.496H717.727ZM718.727 66.592H710.807V68.592H718.727V66.592ZM710.807 66.592C704.564 66.592 699.733 67.8059 696.499 70.4136L697.755 71.9704C700.473 69.7781 704.762 68.592 710.807 68.592V66.592ZM696.499 70.4136C693.182 73.0891 691.663 77.6353 691.663 83.72H693.663C693.663 77.9007 695.12 74.0949 697.755 71.9704L696.499 70.4136ZM691.663 83.72V119H693.663V83.72H691.663ZM692.663 118H664.439V120H692.663V118ZM665.439 119V38.216H663.439V119H665.439ZM664.439 39.216H692.663V37.216H664.439V39.216ZM691.663 38.216V52.472H693.663V38.216H691.663ZM731.005 26.696L730.322 27.4263L730.334 27.4376L730.347 27.4486L731.005 26.696ZM731.005 5.816L730.334 5.07501L730.328 5.08032L730.322 5.08573L731.005 5.816ZM754.909 5.816L754.226 6.54627L754.232 6.55167L754.238 6.55699L754.909 5.816ZM754.909 26.696L755.58 27.4381L755.581 27.437L754.909 26.696ZM757.069 38.216H758.069V37.216H757.069V38.216ZM757.069 119V120H758.069V119H757.069ZM728.845 119H727.845V120H728.845V119ZM728.845 38.216V37.216H727.845V38.216H728.845ZM743.101 29.728C738.295 29.728 734.515 28.4384 731.664 25.9434L730.347 27.4486C733.639 30.3296 737.923 31.728 743.101 31.728V29.728ZM731.688 25.9657C728.917 23.3736 727.541 20.1833 727.541 16.328H725.541C725.541 20.7287 727.141 24.4504 730.322 27.4263L731.688 25.9657ZM727.541 16.328C727.541 12.3694 728.923 9.13353 731.688 6.54627L730.322 5.08573C727.136 8.06647 725.541 11.8386 725.541 16.328H727.541ZM731.677 6.55698C734.529 3.97234 738.304 2.63999 743.101 2.63999V0.639992C737.914 0.639992 733.626 2.09165 730.334 5.07501L731.677 6.55698ZM743.101 2.63999C747.798 2.63999 751.471 3.96931 754.226 6.54627L755.592 5.08573C752.395 2.09468 748.197 0.639992 743.101 0.639992V2.63999ZM754.238 6.55699C757.096 9.14739 758.517 12.3802 758.517 16.328H760.517C760.517 11.8278 758.866 8.05261 755.581 5.07501L754.238 6.55699ZM758.517 16.328C758.517 20.1723 757.102 23.3596 754.238 25.955L755.581 27.437C758.861 24.4644 760.517 20.7397 760.517 16.328H758.517ZM754.239 25.9539C751.485 28.4411 747.807 29.728 743.101 29.728V31.728C748.188 31.728 752.381 30.3269 755.58 27.4381L754.239 25.9539ZM756.069 38.216V119H758.069V38.216H756.069ZM757.069 118H728.845V120H757.069V118ZM729.845 119V38.216H727.845V119H729.845ZM728.845 39.216H757.069V37.216H728.845V39.216ZM849.894 84.296V85.296H850.772L850.886 84.4253L849.894 84.296ZM796.47 84.296V83.296H795.403L795.472 84.3611L796.47 84.296ZM800.07 94.232L799.347 94.9232L799.363 94.9393L799.379 94.9546L800.07 94.232ZM818.502 91.064V90.064H817.871L817.6 90.6333L818.502 91.064ZM848.598 91.064L849.574 91.2827L849.847 90.064H848.598V91.064ZM841.254 106.04L840.483 105.403L840.482 105.405L841.254 106.04ZM827.718 116.264L828.133 117.174L828.133 117.174L827.718 116.264ZM788.262 114.968L787.782 115.845L787.788 115.848L788.262 114.968ZM773.718 100.568L772.843 101.053L772.849 101.063L773.718 100.568ZM773.718 56.648L774.59 57.1383L774.593 57.1325L773.718 56.648ZM788.118 42.248L787.644 41.3675L787.638 41.3706L788.118 42.248ZM830.742 42.104L831.211 41.2209L831.211 41.2209L830.742 42.104ZM845.142 56.216L844.271 56.7063L844.274 56.7121L845.142 56.216ZM821.526 70.616V71.616H822.526V70.616H821.526ZM818.07 62.552L817.412 63.3046L817.421 63.3125L817.43 63.3202L818.07 62.552ZM800.934 62.408L801.571 63.179L801.581 63.1709L801.59 63.1626L800.934 62.408ZM796.614 70.616L795.631 70.4348L795.413 71.616H796.614V70.616ZM849.326 77.672C849.326 79.8364 849.185 82.0012 848.903 84.1667L850.886 84.4253C851.179 82.1748 851.326 79.9236 851.326 77.672H849.326ZM849.894 83.296H796.47V85.296H849.894V83.296ZM795.472 84.3611C795.769 88.9089 797.014 92.4834 799.347 94.9232L800.793 93.5408C798.903 91.5646 797.747 88.5151 797.468 84.2309L795.472 84.3611ZM799.379 94.9546C801.792 97.2631 804.833 98.4 808.422 98.4V96.4C805.292 96.4 802.764 95.4249 800.761 93.5094L799.379 94.9546ZM808.422 98.4C810.927 98.4 813.135 97.8361 815.002 96.6626C816.87 95.489 818.33 93.7465 819.405 91.4947L817.6 90.6333C816.658 92.6055 815.431 94.031 813.938 94.9694C812.445 95.9079 810.621 96.4 808.422 96.4V98.4ZM818.502 92.064H848.598V90.064H818.502V92.064ZM847.622 90.8453C846.409 96.2591 844.031 101.108 840.483 105.403L842.025 106.677C845.773 102.14 848.291 97.0049 849.574 91.2827L847.622 90.8453ZM840.482 105.405C837.034 109.599 832.647 112.916 827.303 115.354L828.133 117.174C833.733 114.62 838.371 111.121 842.027 106.675L840.482 105.405ZM827.303 115.354C821.974 117.785 816.07 119.008 809.574 119.008V121.008C816.327 121.008 822.518 119.735 828.133 117.174L827.303 115.354ZM809.574 119.008C801.751 119.008 794.813 117.36 788.736 114.088L787.788 115.848C794.191 119.296 801.462 121.008 809.574 121.008V119.008ZM788.742 114.091C782.765 110.822 778.05 106.156 774.587 100.073L772.849 101.063C776.49 107.46 781.471 112.394 787.782 115.845L788.742 114.091ZM774.593 100.083C771.233 94.0169 769.534 86.8458 769.534 78.536H767.534C767.534 87.1222 769.291 94.6391 772.843 101.052L774.593 100.083ZM769.534 78.536C769.534 70.2257 771.233 63.1055 774.59 57.1383L772.847 56.1577C769.291 62.4785 767.534 69.9503 767.534 78.536H769.534ZM774.593 57.1325C777.959 51.055 782.623 46.3927 788.598 43.1254L787.638 41.3706C781.325 44.8233 776.389 49.761 772.843 56.1635L774.593 57.1325ZM788.592 43.1285C794.667 39.8572 801.653 38.208 809.574 38.208V36.208C801.368 36.208 794.049 37.9188 787.644 41.3675L788.592 43.1285ZM809.574 38.208C817.403 38.208 824.293 39.8104 830.273 42.9871L831.211 41.2209C824.903 37.8696 817.682 36.208 809.574 36.208V38.208ZM830.273 42.9871C836.246 46.1601 840.907 50.7267 844.271 56.7063L846.014 55.7257C842.465 49.4173 837.527 44.5759 831.211 41.2209L830.273 42.9871ZM844.274 56.7121C847.629 62.5832 849.326 69.5577 849.326 77.672H851.326C851.326 69.2743 849.567 61.9448 846.01 55.7199L844.274 56.7121ZM822.526 70.616C822.526 66.9137 821.278 63.9239 818.71 61.7838L817.43 63.3202C819.47 65.0201 820.526 67.4063 820.526 70.616H822.526ZM818.729 61.7994C816.219 59.6032 813.095 58.528 809.43 58.528V60.528C812.677 60.528 815.314 61.4688 817.412 63.3046L818.729 61.7994ZM809.43 58.528C805.779 58.528 802.7 59.5474 800.278 61.6534L801.59 63.1626C803.584 61.4286 806.169 60.528 809.43 60.528V58.528ZM800.297 61.637C797.86 63.6503 796.332 66.6251 795.631 70.4348L797.598 70.7972C798.24 67.3109 799.592 64.8137 801.571 63.179L800.297 61.637ZM796.614 71.616H821.526V69.616H796.614V71.616ZM936.901 46.856L936.149 47.5153L936.154 47.5211L936.901 46.856ZM945.109 119V120H946.109V119H945.109ZM916.885 119H915.885V120H916.885V119ZM913.285 64.856L912.539 65.522L912.545 65.5288L912.551 65.5354L913.285 64.856ZM893.701 64.856L894.434 65.5354L894.44 65.5288L894.446 65.522L893.701 64.856ZM890.101 119V120H891.101V119H890.101ZM861.877 119H860.877V120H861.877V119ZM861.877 38.216V37.216H860.877V38.216H861.877ZM890.101 38.216H891.101V37.216H890.101V38.216ZM890.101 49.736H889.101V52.9684L890.926 50.3007L890.101 49.736ZM900.181 40.952L900.644 41.8382L900.652 41.8341L900.659 41.8299L900.181 40.952ZM914.725 38.496C923.788 38.496 930.891 41.5197 936.149 47.5153L937.652 46.1967C931.966 39.7123 924.285 36.496 914.725 36.496V38.496ZM936.154 47.5211C941.421 53.4348 944.109 61.5257 944.109 71.912H946.109C946.109 61.1783 943.324 52.5652 937.647 46.1909L936.154 47.5211ZM944.109 71.912V119H946.109V71.912H944.109ZM945.109 118H916.885V120H945.109V118ZM917.885 119V75.656H915.885V119H917.885ZM917.885 75.656C917.885 70.875 916.636 67.0042 914.018 64.1766L912.551 65.5354C914.733 67.8918 915.885 71.221 915.885 75.656H917.885ZM914.03 64.19C911.417 61.2629 907.916 59.824 903.637 59.824V61.824C907.421 61.824 910.352 63.0731 912.539 65.522L914.03 64.19ZM903.637 59.824C899.182 59.824 895.577 61.2524 892.955 64.19L894.446 65.522C896.624 63.0836 899.643 61.824 903.637 61.824V59.824ZM892.967 64.1766C890.349 67.0042 889.101 70.875 889.101 75.656H891.101C891.101 71.221 892.252 67.8918 894.434 65.5354L892.967 64.1766ZM889.101 75.656V119H891.101V75.656H889.101ZM890.101 118H861.877V120H890.101V118ZM862.877 119V38.216H860.877V119H862.877ZM861.877 39.216H890.101V37.216H861.877V39.216ZM889.101 38.216V49.736H891.101V38.216H889.101ZM890.926 50.3007C893.322 46.7984 896.553 43.9764 900.644 41.8382L899.717 40.0658C895.36 42.3436 891.871 45.3776 889.275 49.1713L890.926 50.3007ZM900.659 41.8299C904.717 39.6165 909.397 38.496 914.725 38.496V36.496C909.108 36.496 904.092 37.6795 899.702 40.0741L900.659 41.8299ZM961.171 56.648L962.046 57.1325L962.046 57.1325L961.171 56.648ZM975.571 42.248L975.097 41.3675L975.091 41.3706L975.571 42.248ZM1022.8 45.704L1022.17 46.4818L1022.18 46.487L1022.8 45.704ZM1036.34 69.176V70.176H1037.56L1037.32 68.9799L1036.34 69.176ZM1006.39 69.176L1005.44 69.487L1005.66 70.176H1006.39V69.176ZM987.811 65.72L986.996 65.1412L986.992 65.1465L987.811 65.72ZM987.811 91.496L986.983 92.0568L986.989 92.0659L986.996 92.0747L987.811 91.496ZM1006.39 88.04V87.04H1005.65L1005.43 87.7447L1006.39 88.04ZM1036.34 88.04L1037.32 88.2379L1037.56 87.04H1036.34V88.04ZM1022.8 111.512L1023.43 112.29L1023.43 112.29L1022.8 111.512ZM975.571 114.968L975.091 115.845L975.097 115.848L975.571 114.968ZM961.171 100.568L962.046 100.083L962.046 100.083L961.171 100.568ZM956.987 78.536C956.987 70.3244 958.685 63.2007 962.046 57.1325L960.296 56.1635C956.745 62.5753 954.987 70.0436 954.987 78.536H956.987ZM962.046 57.1325C965.412 51.055 970.077 46.3927 976.051 43.1254L975.091 41.3706C968.778 44.8233 963.842 49.761 960.296 56.1635L962.046 57.1325ZM976.045 43.1285C982.122 39.8563 989.06 38.208 996.883 38.208V36.208C988.771 36.208 981.5 37.9197 975.097 41.3675L976.045 43.1285ZM996.883 38.208C1006.96 38.208 1015.37 40.9814 1022.17 46.4817L1023.43 44.9263C1016.22 39.0986 1007.35 36.208 996.883 36.208V38.208ZM1022.18 46.487C1028.98 51.8863 1033.38 59.4875 1035.36 69.3721L1037.32 68.9799C1035.26 58.7045 1030.65 50.6577 1023.43 44.921L1022.18 46.487ZM1036.34 68.176H1006.39V70.176H1036.34V68.176ZM1007.34 68.865C1006.43 66.0929 1005.06 63.9236 1003.19 62.4497C1001.3 60.9688 998.988 60.256 996.307 60.256V62.256C998.619 62.256 1000.48 62.8632 1001.95 64.0223C1003.44 65.1884 1004.62 66.9791 1005.44 69.487L1007.34 68.865ZM996.307 60.256C992.421 60.256 989.289 61.9096 986.996 65.1413L988.627 66.2987C990.557 63.5784 993.09 62.256 996.307 62.256V60.256ZM986.992 65.1465C984.806 68.269 983.787 72.7817 983.787 78.536H985.787C985.787 72.9623 986.784 68.931 988.63 66.2935L986.992 65.1465ZM983.787 78.536C983.787 84.2939 984.808 88.8451 986.983 92.0568L988.639 90.9351C986.783 88.1949 985.787 84.1061 985.787 78.536H983.787ZM986.996 92.0747C989.289 95.3064 992.421 96.96 996.307 96.96V94.96C993.09 94.96 990.557 93.6376 988.627 90.9173L986.996 92.0747ZM996.307 96.96C999.031 96.96 1001.37 96.2498 1003.26 94.7663C1005.14 93.2885 1006.48 91.1128 1007.34 88.3353L1005.43 87.7447C1004.66 90.2472 1003.5 92.0315 1002.03 93.1937C1000.55 94.3502 998.671 94.96 996.307 94.96V96.96ZM1006.39 89.04H1036.34V87.04H1006.39V89.04ZM1035.36 87.8421C1033.38 97.6293 1028.98 105.236 1022.17 110.734L1023.43 112.29C1030.64 106.46 1035.26 98.4187 1037.32 88.2379L1035.36 87.8421ZM1022.17 110.734C1015.37 116.235 1006.96 119.008 996.883 119.008V121.008C1007.35 121.008 1016.22 118.117 1023.43 112.29L1022.17 110.734ZM996.883 119.008C989.06 119.008 982.122 117.36 976.045 114.088L975.097 115.848C981.5 119.296 988.771 121.008 996.883 121.008V119.008ZM976.051 114.091C970.077 110.823 965.412 106.161 962.046 100.083L960.296 101.052C963.842 107.455 968.778 112.393 975.091 115.845L976.051 114.091ZM962.046 100.083C958.686 94.0169 956.987 86.8458 956.987 78.536H954.987C954.987 87.1222 956.744 94.6391 960.296 101.052L962.046 100.083ZM1124.82 84.296V85.296H1125.69L1125.81 84.4253L1124.82 84.296ZM1071.39 84.296V83.296H1070.32L1070.39 84.3611L1071.39 84.296ZM1074.99 94.232L1074.27 94.9232L1074.28 94.9393L1074.3 94.9546L1074.99 94.232ZM1093.42 91.064V90.064H1092.79L1092.52 90.6333L1093.42 91.064ZM1123.52 91.064L1124.5 91.2827L1124.77 90.064H1123.52V91.064ZM1116.18 106.04L1115.41 105.403L1115.4 105.405L1116.18 106.04ZM1102.64 116.264L1103.06 117.174L1103.06 117.174L1102.64 116.264ZM1063.18 114.968L1062.7 115.845L1062.71 115.848L1063.18 114.968ZM1048.64 100.568L1047.77 101.053L1047.77 101.063L1048.64 100.568ZM1048.64 56.648L1049.51 57.1383L1049.51 57.1325L1048.64 56.648ZM1063.04 42.248L1062.57 41.3675L1062.56 41.3706L1063.04 42.248ZM1105.66 42.104L1106.13 41.2209L1106.13 41.2209L1105.66 42.104ZM1120.06 56.216L1119.19 56.7063L1119.2 56.7121L1120.06 56.216ZM1096.45 70.616V71.616H1097.45V70.616H1096.45ZM1092.99 62.552L1092.33 63.3046L1092.34 63.3125L1092.35 63.3202L1092.99 62.552ZM1075.86 62.408L1076.49 63.179L1076.5 63.1709L1076.51 63.1626L1075.86 62.408ZM1071.54 70.616L1070.55 70.4348L1070.33 71.616H1071.54V70.616ZM1124.25 77.672C1124.25 79.8364 1124.11 82.0012 1123.82 84.1667L1125.81 84.4253C1126.1 82.1748 1126.25 79.9236 1126.25 77.672H1124.25ZM1124.82 83.296H1071.39V85.296H1124.82V83.296ZM1070.39 84.3611C1070.69 88.9089 1071.94 92.4834 1074.27 94.9232L1075.71 93.5408C1073.82 91.5646 1072.67 88.5151 1072.39 84.2309L1070.39 84.3611ZM1074.3 94.9546C1076.71 97.2631 1079.75 98.4 1083.34 98.4V96.4C1080.21 96.4 1077.69 95.4249 1075.68 93.5094L1074.3 94.9546ZM1083.34 98.4C1085.85 98.4 1088.06 97.8361 1089.92 96.6626C1091.79 95.489 1093.25 93.7465 1094.33 91.4947L1092.52 90.6333C1091.58 92.6055 1090.35 94.031 1088.86 94.9694C1087.37 95.9079 1085.54 96.4 1083.34 96.4V98.4ZM1093.42 92.064H1123.52V90.064H1093.42V92.064ZM1122.54 90.8453C1121.33 96.2591 1118.95 101.108 1115.41 105.403L1116.95 106.677C1120.69 102.14 1123.21 97.0049 1124.5 91.2827L1122.54 90.8453ZM1115.4 105.405C1111.96 109.599 1107.57 112.916 1102.22 115.354L1103.06 117.174C1108.65 114.62 1113.29 111.121 1116.95 106.675L1115.4 105.405ZM1102.22 115.354C1096.9 117.785 1090.99 119.008 1084.5 119.008V121.008C1091.25 121.008 1097.44 119.735 1103.06 117.174L1102.22 115.354ZM1084.5 119.008C1076.67 119.008 1069.74 117.36 1063.66 114.088L1062.71 115.848C1069.11 119.296 1076.38 121.008 1084.5 121.008V119.008ZM1063.66 114.091C1057.69 110.822 1052.97 106.156 1049.51 100.073L1047.77 101.063C1051.41 107.46 1056.39 112.394 1062.7 115.845L1063.66 114.091ZM1049.51 100.083C1046.15 94.0169 1044.46 86.8458 1044.46 78.536H1042.46C1042.46 87.1222 1044.21 94.6391 1047.77 101.052L1049.51 100.083ZM1044.46 78.536C1044.46 70.2257 1046.16 63.1055 1049.51 57.1383L1047.77 56.1577C1044.21 62.4785 1042.46 69.9503 1042.46 78.536H1044.46ZM1049.51 57.1325C1052.88 51.055 1057.55 46.3927 1063.52 43.1254L1062.56 41.3706C1056.25 44.8233 1051.31 49.761 1047.77 56.1635L1049.51 57.1325ZM1063.51 43.1285C1069.59 39.8572 1076.57 38.208 1084.5 38.208V36.208C1076.29 36.208 1068.97 37.9188 1062.57 41.3675L1063.51 43.1285ZM1084.5 38.208C1092.32 38.208 1099.22 39.8104 1105.19 42.9871L1106.13 41.2209C1099.82 37.8696 1092.6 36.208 1084.5 36.208V38.208ZM1105.19 42.9871C1111.17 46.1601 1115.83 50.7267 1119.19 56.7063L1120.94 55.7257C1117.39 49.4173 1112.45 44.5759 1106.13 41.2209L1105.19 42.9871ZM1119.2 56.7121C1122.55 62.5832 1124.25 69.5577 1124.25 77.672H1126.25C1126.25 69.2743 1124.49 61.9448 1120.93 55.7199L1119.2 56.7121ZM1097.45 70.616C1097.45 66.9137 1096.2 63.9239 1093.63 61.7838L1092.35 63.3202C1094.39 65.0201 1095.45 67.4063 1095.45 70.616H1097.45ZM1093.65 61.7994C1091.14 59.6032 1088.02 58.528 1084.35 58.528V60.528C1087.6 60.528 1090.24 61.4688 1092.33 63.3046L1093.65 61.7994ZM1084.35 58.528C1080.7 58.528 1077.62 59.5474 1075.2 61.6534L1076.51 63.1626C1078.51 61.4286 1081.09 60.528 1084.35 60.528V58.528ZM1075.22 61.637C1072.78 63.6503 1071.25 66.6251 1070.55 70.4348L1072.52 70.7972C1073.16 67.3109 1074.51 64.8137 1076.49 63.179L1075.22 61.637ZM1071.54 71.616H1096.45V69.616H1071.54V71.616ZM1151.63 116.408L1151.23 117.323L1151.24 117.327L1151.25 117.331L1151.63 116.408ZM1138.09 106.328L1137.3 106.931L1137.3 106.941L1137.31 106.951L1138.09 106.328ZM1132.62 91.784V90.784H1131.55L1131.62 91.8552L1132.62 91.784ZM1159.98 91.784L1160.97 91.6374L1160.85 90.784H1159.98V91.784ZM1175.25 90.344L1175.65 89.4269L1175.65 89.4269L1175.25 90.344ZM1164.3 87.176L1164.52 86.2007L1164.51 86.1979L1164.5 86.1954L1164.3 87.176ZM1149.9 83.288L1149.55 84.2243L1149.55 84.2243L1149.9 83.288ZM1139.82 76.232L1139.06 76.8809L1139.07 76.8873L1139.07 76.8936L1139.82 76.232ZM1139.53 50.024L1140.36 50.5835L1140.37 50.574L1139.53 50.024ZM1150.91 40.664L1150.5 39.753L1150.49 39.756L1150.91 40.664ZM1194.11 44.984L1193.46 45.7433L1193.46 45.7433L1194.11 44.984ZM1204.62 65.432V66.432H1205.74L1205.62 65.3191L1204.62 65.432ZM1179.13 65.432L1178.15 65.6141L1178.3 66.432H1179.13V65.432ZM1175.68 59.528L1175.04 60.2962L1175.06 60.3153L1175.09 60.3331L1175.68 59.528ZM1163.29 58.664L1162.73 57.8418L1162.71 57.8526L1162.69 57.864L1163.29 58.664ZM1164.88 66.728L1164.45 67.6301L1164.46 67.6379L1164.48 67.6451L1164.88 66.728ZM1175.53 69.752L1175.32 70.7295L1175.33 70.73L1175.53 69.752ZM1190.08 73.928L1189.71 74.8565L1189.71 74.8596L1190.08 73.928ZM1200.3 81.416L1199.53 82.0562L1199.54 82.0678L1199.55 82.079L1200.3 81.416ZM1200.59 107.912L1199.79 107.315L1199.78 107.322L1199.78 107.329L1200.59 107.912ZM1188.93 116.84L1189.32 117.761L1189.32 117.757L1188.93 116.84ZM1171.21 119.008C1164.03 119.008 1157.63 117.826 1152.01 115.485L1151.25 117.331C1157.15 119.79 1163.81 121.008 1171.21 121.008V119.008ZM1152.03 115.493C1146.5 113.053 1142.12 109.785 1138.88 105.705L1137.31 106.951C1140.79 111.319 1145.44 114.771 1151.23 117.323L1152.03 115.493ZM1138.89 105.725C1135.74 101.559 1133.99 96.8951 1133.62 91.7128L1131.62 91.8552C1132.02 97.4249 1133.92 102.457 1137.3 106.931L1138.89 105.725ZM1132.62 92.784H1159.98V90.784H1132.62V92.784ZM1158.99 91.9305C1159.41 94.7738 1160.75 97.0381 1163 98.6457L1164.16 97.0183C1162.38 95.7459 1161.32 93.9782 1160.97 91.6374L1158.99 91.9305ZM1163 98.6457C1165.22 100.23 1167.93 100.992 1171.07 100.992V98.992C1168.26 98.992 1165.98 98.3144 1164.16 97.0183L1163 98.6457ZM1171.07 100.992C1173.5 100.992 1175.55 100.486 1177.12 99.3657L1175.96 97.7383C1174.84 98.5377 1173.25 98.992 1171.07 98.992V100.992ZM1177.12 99.3657C1178.71 98.2346 1179.56 96.6944 1179.56 94.808H1177.56C1177.56 95.9936 1177.07 96.9494 1175.96 97.7383L1177.12 99.3657ZM1179.56 94.808C1179.56 93.6054 1179.22 92.5159 1178.53 91.5842C1177.85 90.6635 1176.86 89.9564 1175.65 89.4269L1174.85 91.2611C1175.84 91.6916 1176.51 92.2085 1176.93 92.7758C1177.34 93.3321 1177.56 93.9946 1177.56 94.808H1179.56ZM1175.65 89.4269C1173.35 88.4269 1169.62 87.3544 1164.52 86.2007L1164.08 88.1513C1169.16 89.3016 1172.73 90.3411 1174.85 91.2611L1175.65 89.4269ZM1164.5 86.1954C1158.77 85.0499 1154.03 83.7666 1150.25 82.3517L1149.55 84.2243C1153.46 85.6894 1158.31 86.9981 1164.11 88.1566L1164.5 86.1954ZM1150.25 82.3517C1146.58 80.9727 1143.35 78.7193 1140.57 75.5704L1139.07 76.8936C1142.05 80.2727 1145.55 82.7233 1149.55 84.2243L1150.25 82.3517ZM1140.58 75.5831C1137.99 72.5483 1136.65 68.3863 1136.65 62.984H1134.65C1134.65 68.7177 1136.08 73.3877 1139.06 76.8809L1140.58 75.5831ZM1136.65 62.984C1136.65 58.3758 1137.89 54.252 1140.36 50.5835L1138.71 49.4645C1136 53.476 1134.65 57.9922 1134.65 62.984H1136.65ZM1140.37 50.574C1142.84 46.8182 1146.48 43.811 1151.33 41.572L1150.49 39.756C1145.36 42.125 1141.41 45.3578 1138.7 49.474L1140.37 50.574ZM1151.32 41.575C1156.25 39.3433 1162.2 38.208 1169.2 38.208V36.208C1161.99 36.208 1155.75 37.3767 1150.5 39.753L1151.32 41.575ZM1169.2 38.208C1179.6 38.208 1187.64 40.7591 1193.46 45.7433L1194.76 44.2247C1188.48 38.8409 1179.92 36.208 1169.2 36.208V38.208ZM1193.46 45.7433C1199.3 50.7511 1202.7 57.3294 1203.63 65.5449L1205.62 65.3191C1204.63 56.6386 1201.01 49.5849 1194.76 44.2247L1193.46 45.7433ZM1204.62 64.432H1179.13V66.432H1204.62V64.432ZM1180.12 65.2499C1179.6 62.4519 1178.33 60.242 1176.27 58.7229L1175.09 60.3331C1176.67 61.502 1177.71 63.2281 1178.15 65.6141L1180.12 65.2499ZM1176.32 58.7598C1174.36 57.1275 1171.76 56.368 1168.62 56.368V58.368C1171.44 58.368 1173.54 59.0485 1175.04 60.2962L1176.32 58.7598ZM1168.62 56.368C1166.21 56.368 1164.21 56.8163 1162.73 57.8418L1163.86 59.4862C1164.88 58.7837 1166.42 58.368 1168.62 58.368V56.368ZM1162.69 57.864C1161.27 58.931 1160.57 60.4377 1160.57 62.264H1162.57C1162.57 61.0183 1163.01 60.1249 1163.89 59.464L1162.69 57.864ZM1160.57 62.264C1160.57 64.6815 1162.01 66.4627 1164.45 67.6301L1165.31 65.8259C1163.33 64.8813 1162.57 63.6865 1162.57 62.264H1160.57ZM1164.48 67.6451C1166.78 68.6467 1170.42 69.6712 1175.32 70.7295L1175.75 68.7745C1170.86 67.7208 1167.39 66.7293 1165.28 65.8109L1164.48 67.6451ZM1175.33 70.73C1181.15 71.9709 1185.94 73.3487 1189.71 74.8565L1190.45 72.9995C1186.54 71.4353 1181.63 70.0291 1175.74 68.774L1175.33 70.73ZM1189.71 74.8596C1193.48 76.3302 1196.76 78.7213 1199.53 82.0562L1201.07 80.7758C1198.09 77.1987 1194.55 74.5978 1190.44 72.9964L1189.71 74.8596ZM1199.55 82.079C1202.32 85.2062 1203.77 89.5522 1203.77 95.24H1205.77C1205.77 89.2158 1204.23 84.3458 1201.05 80.753L1199.55 82.079ZM1203.77 95.24C1203.77 99.7309 1202.44 103.745 1199.79 107.315L1201.39 108.509C1204.31 104.591 1205.77 100.157 1205.77 95.24H1203.77ZM1199.78 107.329C1197.22 110.899 1193.48 113.772 1188.53 115.923L1189.32 117.757C1194.54 115.492 1198.59 112.413 1201.4 108.495L1199.78 107.329ZM1188.54 115.919C1183.7 117.967 1177.93 119.008 1171.21 119.008V121.008C1178.13 121.008 1184.17 119.937 1189.32 117.761L1188.54 115.919Z"
              fill="white"
            />
          </svg>