<svg width="467" height="75" viewBox="0 0 467 75" fill="none" xmlns="http://www.w3.org/2000/svg">
<path d="M47.904 61.096H22.752L18.72 73H1.536L25.92 5.608H44.928L69.312 73H51.936L47.904 61.096ZM43.68 48.424L35.328 23.752L27.072 48.424H43.68ZM96.9892 27.016C98.5252 24.52 100.733 22.504 103.613 20.968C106.493 19.432 109.789 18.664 113.501 18.664C117.917 18.664 121.917 19.784 125.501 22.024C129.085 24.264 131.901 27.464 133.949 31.624C136.061 35.784 137.117 40.616 137.117 46.12C137.117 51.624 136.061 56.488 133.949 60.712C131.901 64.872 129.085 68.104 125.501 70.408C121.917 72.648 117.917 73.768 113.501 73.768C109.725 73.768 106.429 73.032 103.613 71.56C100.797 70.024 98.5892 68.008 96.9892 65.512V73H80.5732V1.96H96.9892V27.016ZM120.413 46.12C120.413 42.024 119.261 38.824 116.957 36.52C114.717 34.152 111.933 32.968 108.605 32.968C105.341 32.968 102.557 34.152 100.253 36.52C98.0132 38.888 96.8932 42.12 96.8932 46.216C96.8932 50.312 98.0132 53.544 100.253 55.912C102.557 58.28 105.341 59.464 108.605 59.464C111.869 59.464 114.653 58.28 116.957 55.912C119.261 53.48 120.413 50.216 120.413 46.12ZM173.953 73.768C168.705 73.768 163.969 72.648 159.745 70.408C155.585 68.168 152.289 64.968 149.857 60.808C147.489 56.648 146.305 51.784 146.305 46.216C146.305 40.712 147.521 35.88 149.953 31.72C152.385 27.496 155.713 24.264 159.937 22.024C164.161 19.784 168.897 18.664 174.145 18.664C179.393 18.664 184.129 19.784 188.353 22.024C192.577 24.264 195.905 27.496 198.337 31.72C200.769 35.88 201.985 40.712 201.985 46.216C201.985 51.72 200.737 56.584 198.241 60.808C195.809 64.968 192.449 68.168 188.161 70.408C183.937 72.648 179.201 73.768 173.953 73.768ZM173.953 59.56C177.089 59.56 179.745 58.408 181.921 56.104C184.161 53.8 185.281 50.504 185.281 46.216C185.281 41.928 184.193 38.632 182.017 36.328C179.905 34.024 177.281 32.872 174.145 32.872C170.945 32.872 168.289 34.024 166.177 36.328C164.065 38.568 163.009 41.864 163.009 46.216C163.009 50.504 164.033 53.8 166.081 56.104C168.193 58.408 170.817 59.56 173.953 59.56ZM267.431 19.432V73H251.015V65.704C249.351 68.072 247.079 69.992 244.199 71.464C241.383 72.872 238.247 73.576 234.791 73.576C230.695 73.576 227.079 72.68 223.943 70.888C220.807 69.032 218.375 66.376 216.647 62.92C214.919 59.464 214.055 55.4 214.055 50.728V19.432H230.375V48.52C230.375 52.104 231.303 54.888 233.159 56.872C235.015 58.856 237.511 59.848 240.647 59.848C243.847 59.848 246.375 58.856 248.231 56.872C250.087 54.888 251.015 52.104 251.015 48.52V19.432H267.431ZM312.918 59.08V73H304.566C298.614 73 293.974 71.56 290.646 68.68C287.318 65.736 285.654 60.968 285.654 54.376V33.064H279.126V19.432H285.654V6.376H302.07V19.432H312.822V33.064H302.07V54.568C302.07 56.168 302.454 57.32 303.222 58.024C303.99 58.728 305.27 59.08 307.062 59.08H312.918Z" fill="#ffffff"/>
<path d="M47.904 61.096L48.8511 60.7752L48.6211 60.096H47.904V61.096ZM22.752 61.096V60.096H22.0349L21.8049 60.7752L22.752 61.096ZM18.72 73V74H19.4371L19.6671 73.3208L18.72 73ZM1.536 73L0.59566 72.6598L0.110731 74H1.536V73ZM25.92 5.608V4.608H25.2184L24.9797 5.26776L25.92 5.608ZM44.928 5.608L45.8683 5.26776L45.6296 4.608H44.928V5.608ZM69.312 73V74H70.7373L70.2523 72.6598L69.312 73ZM51.936 73L50.9889 73.3208L51.2189 74H51.936V73ZM43.68 48.424V49.424H45.0743L44.6272 48.1034L43.68 48.424ZM35.328 23.752L36.2752 23.4314L35.3225 20.6171L34.3797 23.4347L35.328 23.752ZM27.072 48.424L26.1237 48.1067L25.6829 49.424H27.072V48.424ZM47.904 60.096H22.752V62.096H47.904V60.096ZM21.8049 60.7752L17.7729 72.6792L19.6671 73.3208L23.6991 61.4168L21.8049 60.7752ZM18.72 72H1.536V74H18.72V72ZM2.47634 73.3402L26.8603 5.94823L24.9797 5.26776L0.59566 72.6598L2.47634 73.3402ZM25.92 6.608H44.928V4.608H25.92V6.608ZM43.9877 5.94823L68.3717 73.3402L70.2523 72.6598L45.8683 5.26776L43.9877 5.94823ZM69.312 72H51.936V74H69.312V72ZM52.8831 72.6792L48.8511 60.7752L46.9569 61.4168L50.9889 73.3208L52.8831 72.6792ZM44.6272 48.1034L36.2752 23.4314L34.3808 24.0726L42.7328 48.7446L44.6272 48.1034ZM34.3797 23.4347L26.1237 48.1067L28.0203 48.7413L36.2763 24.0693L34.3797 23.4347ZM27.072 49.424H43.68V47.424H27.072V49.424ZM96.9892 27.016H95.9892V30.549L97.8409 27.5401L96.9892 27.016ZM103.613 20.968L103.143 20.0856L103.143 20.0856L103.613 20.968ZM125.501 22.024L124.971 22.872L124.971 22.872L125.501 22.024ZM133.949 31.624L133.052 32.0657L133.058 32.0767L133.949 31.624ZM133.949 60.712L133.055 60.2648L133.052 60.2703L133.949 60.712ZM125.501 70.408L126.031 71.2561L126.042 71.2492L125.501 70.408ZM103.613 71.56L103.134 72.4379L103.142 72.4421L103.15 72.4462L103.613 71.56ZM96.9892 65.512L97.8311 64.9723L95.9892 62.099V65.512H96.9892ZM96.9892 73V74H97.9892V73H96.9892ZM80.5732 73H79.5732V74H80.5732V73ZM80.5732 1.96V0.959999H79.5732V1.96H80.5732ZM96.9892 1.96H97.9892V0.959999H96.9892V1.96ZM116.957 36.52L116.231 37.2072L116.24 37.2173L116.25 37.2271L116.957 36.52ZM100.253 36.52L99.5365 35.8226L99.5268 35.8328L100.253 36.52ZM100.253 55.912L99.5267 56.5993L99.5365 56.6094L100.253 55.912ZM116.957 55.912L117.674 56.6094L117.683 56.5997L116.957 55.912ZM97.8409 27.5401C99.2736 25.2119 101.342 23.3126 104.084 21.8503L103.143 20.0856C100.124 21.6954 97.7768 23.8281 96.1376 26.4919L97.8409 27.5401ZM104.084 21.8503C106.8 20.4016 109.931 19.664 113.501 19.664V17.664C109.648 17.664 106.186 18.4624 103.143 20.0856L104.084 21.8503ZM113.501 19.664C117.739 19.664 121.554 20.7359 124.971 22.872L126.031 21.176C122.281 18.8321 118.096 17.664 113.501 17.664V19.664ZM124.971 22.872C128.382 25.0039 131.078 28.0559 133.052 32.0657L134.846 31.1823C132.724 26.8721 129.788 23.5241 126.031 21.176L124.971 22.872ZM133.058 32.0767C135.087 36.0733 136.117 40.7452 136.117 46.12H138.117C138.117 40.4868 137.036 35.4947 134.841 31.1713L133.058 32.0767ZM136.117 46.12C136.117 51.4944 135.087 56.2009 133.055 60.2648L134.844 61.1592C137.036 56.7751 138.117 51.7536 138.117 46.12H136.117ZM133.052 60.2703C131.077 64.2821 128.378 67.3697 124.96 69.5668L126.042 71.2492C129.792 68.8383 132.725 65.4619 134.846 61.1537L133.052 60.2703ZM124.971 69.56C121.554 71.6961 117.739 72.768 113.501 72.768V74.768C118.096 74.768 122.281 73.5999 126.031 71.256L124.971 69.56ZM113.501 72.768C109.856 72.768 106.725 72.0582 104.077 70.6738L103.15 72.4462C106.134 74.0058 109.594 74.768 113.501 74.768V72.768ZM104.092 70.6821C101.411 69.2198 99.3331 67.3154 97.8311 64.9723L96.1474 66.0517C97.8454 68.7006 100.183 70.8282 103.134 72.4379L104.092 70.6821ZM95.9892 65.512V73H97.9892V65.512H95.9892ZM96.9892 72H80.5732V74H96.9892V72ZM81.5732 73V1.96H79.5732V73H81.5732ZM80.5732 2.96H96.9892V0.959999H80.5732V2.96ZM95.9892 1.96V27.016H97.9892V1.96H95.9892ZM121.413 46.12C121.413 41.8307 120.201 38.3498 117.664 35.8129L116.25 37.2271C118.321 39.2982 119.413 42.2173 119.413 46.12H121.413ZM117.684 35.8328C115.25 33.2604 112.202 31.968 108.605 31.968V33.968C111.665 33.968 114.184 35.0436 116.231 37.2072L117.684 35.8328ZM108.605 31.968C105.068 31.968 102.026 33.2638 99.5365 35.8226L100.97 37.2174C103.088 35.0402 105.615 33.968 108.605 33.968V31.968ZM99.5268 35.8328C97.0691 38.4309 95.8932 41.933 95.8932 46.216H97.8932C97.8932 42.307 98.9574 39.345 100.98 37.2072L99.5268 35.8328ZM95.8932 46.216C95.8932 50.499 97.0691 54.0011 99.5268 56.5992L100.98 55.2248C98.9574 53.0869 97.8932 50.125 97.8932 46.216H95.8932ZM99.5365 56.6094C102.026 59.1682 105.068 60.464 108.605 60.464V58.464C105.615 58.464 103.088 57.3918 100.97 55.2146L99.5365 56.6094ZM108.605 60.464C112.143 60.464 115.184 59.1682 117.674 56.6094L116.241 55.2146C114.122 57.3918 111.596 58.464 108.605 58.464V60.464ZM117.683 56.5997C120.201 53.9425 121.413 50.4118 121.413 46.12H119.413C119.413 50.0202 118.322 53.0175 116.231 55.2243L117.683 56.5997ZM159.745 70.408L159.271 71.2885L159.277 71.2915L159.745 70.408ZM149.857 60.808L148.988 61.3027L148.994 61.3127L149.857 60.808ZM149.953 31.72L150.817 32.2247L150.82 32.219L149.953 31.72ZM159.937 22.024L160.406 22.9075L160.406 22.9075L159.937 22.024ZM188.353 22.024L187.885 22.9075L187.885 22.9075L188.353 22.024ZM198.337 31.72L197.471 32.219L197.474 32.2247L198.337 31.72ZM198.241 60.808L197.381 60.2993L197.378 60.3033L198.241 60.808ZM188.161 70.408L187.698 69.5216L187.693 69.5245L188.161 70.408ZM181.921 56.104L181.204 55.4069L181.199 55.4121L181.194 55.4174L181.921 56.104ZM182.017 36.328L181.28 37.0037L181.285 37.0092L181.29 37.0146L182.017 36.328ZM166.177 36.328L166.905 37.0141L166.915 37.0037L166.177 36.328ZM166.081 56.104L165.334 56.7684L165.339 56.7741L165.344 56.7797L166.081 56.104ZM173.953 72.768C168.853 72.768 164.28 71.6807 160.214 69.5245L159.277 71.2915C163.659 73.6153 168.558 74.768 173.953 74.768V72.768ZM160.22 69.5275C156.225 67.3765 153.062 64.308 150.721 60.3033L148.994 61.3127C151.517 65.628 154.946 68.9595 159.271 71.2885L160.22 69.5275ZM150.727 60.3133C148.457 56.3271 147.305 51.6391 147.305 46.216H145.305C145.305 51.9289 146.522 56.9689 148.988 61.3027L150.727 60.3133ZM147.305 46.216C147.305 40.8637 148.486 36.2108 150.817 32.2247L149.09 31.2153C146.557 35.5492 145.305 40.5603 145.305 46.216H147.305ZM150.82 32.219C153.16 28.1547 156.352 25.0575 160.406 22.9075L159.469 21.1405C155.075 23.4705 151.611 26.8373 149.087 31.221L150.82 32.219ZM160.406 22.9075C164.472 20.7513 169.045 19.664 174.145 19.664V17.664C168.75 17.664 163.851 18.8167 159.469 21.1405L160.406 22.9075ZM174.145 19.664C179.246 19.664 183.819 20.7513 187.885 22.9075L188.822 21.1405C184.44 18.8167 179.541 17.664 174.145 17.664V19.664ZM187.885 22.9075C191.939 25.0575 195.131 28.1547 197.471 32.219L199.204 31.221C196.68 26.8373 193.216 23.4705 188.822 21.1405L187.885 22.9075ZM197.474 32.2247C199.805 36.2108 200.985 40.8637 200.985 46.216H202.985C202.985 40.5603 201.734 35.5492 199.201 31.2153L197.474 32.2247ZM200.985 46.216C200.985 51.5633 199.775 56.2475 197.381 60.2993L199.102 61.3167C201.7 56.9205 202.985 51.8767 202.985 46.216H200.985ZM197.378 60.3033C195.041 64.3003 191.821 67.3683 187.698 69.5217L188.625 71.2943C193.078 68.9677 196.577 65.6357 199.105 61.3127L197.378 60.3033ZM187.693 69.5245C183.627 71.6807 179.054 72.768 173.953 72.768V74.768C179.349 74.768 184.248 73.6153 188.63 71.2915L187.693 69.5245ZM173.953 60.56C177.368 60.56 180.286 59.2922 182.649 56.7906L181.194 55.4174C179.205 57.5238 176.811 58.56 173.953 58.56V60.56ZM182.638 56.8011C185.114 54.2548 186.281 50.6748 186.281 46.216H184.281C184.281 50.3332 183.209 53.3452 181.204 55.4069L182.638 56.8011ZM186.281 46.216C186.281 41.7645 185.15 38.1885 182.745 35.6414L181.29 37.0146C183.237 39.0755 184.281 42.0915 184.281 46.216H186.281ZM182.755 35.6523C180.453 33.1409 177.561 31.872 174.145 31.872V33.872C177.002 33.872 179.358 34.9071 181.28 37.0037L182.755 35.6523ZM174.145 31.872C170.673 31.872 167.747 33.1361 165.44 35.6523L166.915 37.0037C168.832 34.9119 171.218 33.872 174.145 33.872V31.872ZM165.45 35.642C163.102 38.1324 162.009 41.7147 162.009 46.216H164.009C164.009 42.0133 165.029 39.0036 166.905 37.014L165.45 35.642ZM162.009 46.216C162.009 50.6532 163.069 54.2206 165.334 56.7684L166.829 55.4396C164.998 53.3794 164.009 50.3548 164.009 46.216H162.009ZM165.344 56.7797C167.646 59.2911 170.538 60.56 173.953 60.56V58.56C171.097 58.56 168.741 57.5249 166.819 55.4283L165.344 56.7797ZM267.431 19.432H268.431V18.432H267.431V19.432ZM267.431 73V74H268.431V73H267.431ZM251.015 73H250.015V74H251.015V73ZM251.015 65.704H252.015V62.5416L250.196 65.1291L251.015 65.704ZM244.199 71.464L244.646 72.3585L244.654 72.3544L244.199 71.464ZM223.943 70.888L223.433 71.7486L223.44 71.7525L223.446 71.7562L223.943 70.888ZM216.647 62.92L215.752 63.3672L216.647 62.92ZM214.055 19.432V18.432H213.055V19.432H214.055ZM230.375 19.432H231.375V18.432H230.375V19.432ZM233.159 56.872L232.428 57.5552L232.428 57.5552L233.159 56.872ZM251.015 19.432V18.432H250.015V19.432H251.015ZM266.431 19.432V73H268.431V19.432H266.431ZM267.431 72H251.015V74H267.431V72ZM252.015 73V65.704H250.015V73H252.015ZM250.196 65.1291C248.636 67.3489 246.496 69.1668 243.743 70.5736L244.654 72.3544C247.661 70.8172 250.065 68.7951 251.833 66.2789L250.196 65.1291ZM243.751 70.5696C241.087 71.9016 238.107 72.576 234.791 72.576V74.576C238.386 74.576 241.678 73.8424 244.646 72.3584L243.751 70.5696ZM234.791 72.576C230.845 72.576 227.404 71.7144 224.439 70.0198L223.446 71.7562C226.753 73.6456 230.544 74.576 234.791 74.576V72.576ZM224.452 70.0274C221.491 68.2753 219.188 65.7677 217.541 62.4728L215.752 63.3672C217.561 66.9843 220.122 69.7887 223.433 71.7486L224.452 70.0274ZM217.541 62.4728C215.895 59.1817 215.055 55.2768 215.055 50.728H213.055C213.055 55.5232 213.942 59.7463 215.752 63.3672L217.541 62.4728ZM215.055 50.728V19.432H213.055V50.728H215.055ZM214.055 20.432H230.375V18.432H214.055V20.432ZM229.375 19.432V48.52H231.375V19.432H229.375ZM229.375 48.52C229.375 52.2746 230.349 55.333 232.428 57.5552L233.889 56.1888C232.256 54.443 231.375 51.9334 231.375 48.52H229.375ZM232.428 57.5552C234.503 59.7731 237.28 60.848 240.647 60.848V58.848C237.741 58.848 235.526 57.9389 233.889 56.1888L232.428 57.5552ZM240.647 60.848C244.07 60.848 246.882 59.7773 248.961 57.5552L247.5 56.1888C245.867 57.9347 243.623 58.848 240.647 58.848V60.848ZM248.961 57.5552C251.04 55.333 252.015 52.2746 252.015 48.52H250.015C250.015 51.9334 249.133 54.443 247.5 56.1888L248.961 57.5552ZM252.015 48.52V19.432H250.015V48.52H252.015ZM251.015 20.432H267.431V18.432H251.015V20.432ZM312.918 59.08H313.918V58.08H312.918V59.08ZM312.918 73V74H313.918V73H312.918ZM290.646 68.68L289.983 69.429L289.992 69.4362L290.646 68.68ZM285.654 33.064H286.654V32.064H285.654V33.064ZM279.126 33.064H278.126V34.064H279.126V33.064ZM279.126 19.432V18.432H278.126V19.432H279.126ZM285.654 19.432V20.432H286.654V19.432H285.654ZM285.654 6.376V5.376H284.654V6.376H285.654ZM302.07 6.376H303.07V5.376H302.07V6.376ZM302.07 19.432H301.07V20.432H302.07V19.432ZM312.822 19.432H313.822V18.432H312.822V19.432ZM312.822 33.064V34.064H313.822V33.064H312.822ZM302.07 33.064V32.064H301.07V33.064H302.07ZM303.222 58.024L302.546 58.7612L302.546 58.7612L303.222 58.024ZM311.918 59.08V73H313.918V59.08H311.918ZM312.918 72H304.566V74H312.918V72ZM304.566 72C298.769 72 294.391 70.5986 291.3 67.9238L289.992 69.4362C293.557 72.5214 298.459 74 304.566 74V72ZM291.309 67.931C288.282 65.2533 286.654 60.8217 286.654 54.376H284.654C284.654 61.1143 286.354 66.2187 289.983 69.429L291.309 67.931ZM286.654 54.376V33.064H284.654V54.376H286.654ZM285.654 32.064H279.126V34.064H285.654V32.064ZM280.126 33.064V19.432H278.126V33.064H280.126ZM279.126 20.432H285.654V18.432H279.126V20.432ZM286.654 19.432V6.376H284.654V19.432H286.654ZM285.654 7.376H302.07V5.376H285.654V7.376ZM301.07 6.376V19.432H303.07V6.376H301.07ZM302.07 20.432H312.822V18.432H302.07V20.432ZM311.822 19.432V33.064H313.822V19.432H311.822ZM312.822 32.064H302.07V34.064H312.822V32.064ZM301.07 33.064V54.568H303.07V33.064H301.07ZM301.07 54.568C301.07 56.2993 301.483 57.7863 302.546 58.7612L303.898 57.2868C303.425 56.8537 303.07 56.0367 303.07 54.568H301.07ZM302.546 58.7612C303.592 59.7202 305.186 60.08 307.062 60.08V58.08C305.354 58.08 304.388 57.7358 303.898 57.2868L302.546 58.7612ZM307.062 60.08H312.918V58.08H307.062V60.08ZM366.214 5.608H367.214V4.608H366.214V5.608ZM369.19 55.24L368.451 55.9138L368.451 55.9138L369.19 55.24ZM386.758 55.24L387.486 55.9254L387.486 55.9254L386.758 55.24ZM389.83 5.608V4.608H388.83V5.608H389.83ZM406.246 5.608H407.246V4.608H406.246V5.608ZM402.406 61.096L403.257 61.6201L403.257 61.6201L402.406 61.096ZM392.038 70.504L391.601 69.6043L391.596 69.6069L392.038 70.504ZM363.334 70.6L362.881 71.4917L362.889 71.4958L362.897 71.4998L363.334 70.6ZM353.446 61.192L352.579 61.691L352.582 61.6967L353.446 61.192ZM349.798 5.608V4.608H348.798V5.608H349.798ZM365.214 5.608V45.928H367.214V5.608H365.214ZM365.214 45.928C365.214 50.1164 366.245 53.4948 368.451 55.9138L369.929 54.5662C368.166 52.6332 367.214 49.8036 367.214 45.928H365.214ZM368.451 55.9138C370.678 58.3561 373.895 59.504 377.926 59.504V57.504C374.277 57.504 371.67 56.4759 369.929 54.5662L368.451 55.9138ZM377.926 59.504C381.958 59.504 385.199 58.3555 387.486 55.9254L386.03 54.5546C384.221 56.4765 381.573 57.504 377.926 57.504V59.504ZM387.486 55.9254C389.762 53.5069 390.83 50.124 390.83 45.928H388.83C388.83 49.796 387.849 52.621 386.03 54.5546L387.486 55.9254ZM390.83 45.928V5.608H388.83V45.928H390.83ZM389.83 6.608H406.246V4.608H389.83V6.608ZM405.246 5.608V45.832H407.246V5.608H405.246ZM405.246 45.832C405.246 51.7057 403.997 56.6024 401.554 60.5719L403.257 61.6201C405.935 57.2696 407.246 51.9903 407.246 45.832H405.246ZM401.554 60.5719C399.093 64.5714 395.78 67.5763 391.601 69.6043L392.474 71.4037C396.999 69.2077 400.599 65.9406 403.257 61.6201L401.554 60.5719ZM391.596 69.6069C387.46 71.644 382.814 72.672 377.638 72.672V74.672C383.086 74.672 388.039 73.588 392.48 71.4011L391.596 69.6069ZM377.638 72.672C372.457 72.672 367.841 71.6741 363.77 69.7002L362.897 71.4998C367.274 73.6219 372.195 74.672 377.638 74.672V72.672ZM363.786 69.7083C359.803 67.6862 356.648 64.6873 354.309 60.6873L352.582 61.6967C355.108 66.0167 358.544 69.2898 362.881 71.4917L363.786 69.7083ZM354.312 60.693C351.986 56.6526 350.798 51.7136 350.798 45.832H348.798C348.798 51.9824 350.041 57.2834 352.579 61.691L354.312 60.693ZM350.798 45.832V5.608H348.798V45.832H350.798ZM349.798 6.608H366.214V4.608H349.798V6.608ZM430.925 71.368L431.327 70.4522L431.327 70.4522L430.925 71.368ZM422.285 64.84L421.485 65.44L421.492 65.4488L422.285 64.84ZM418.733 55.432V54.432H417.656L417.736 55.5059L418.733 55.432ZM434.957 55.432L435.952 55.3291L435.859 54.432H434.957V55.432ZM437.549 59.944L438.149 59.144L438.149 59.144L437.549 59.944ZM447.917 60.52L448.494 61.337L448.503 61.3307L447.917 60.52ZM447.245 53.992L446.813 54.8935L446.827 54.9007L446.843 54.9073L447.245 53.992ZM439.469 51.496L439.712 50.5259L439.704 50.5239L439.696 50.5222L439.469 51.496ZM429.869 48.712L429.498 49.6405L429.508 49.6445L429.518 49.6483L429.869 48.712ZM423.245 44.008L422.484 44.6569L422.489 44.6626L422.494 44.6681L423.245 44.008ZM422.957 26.92L422.128 26.3605L422.125 26.3653L422.957 26.92ZM430.445 20.872L430.041 19.9574L430.034 19.9604L430.445 20.872ZM458.093 23.656L457.438 24.4117L457.445 24.417L458.093 23.656ZM464.813 36.904V37.904H465.923L465.808 36.7999L464.813 36.904ZM449.645 36.904L448.655 37.0406L448.774 37.904H449.645V36.904ZM447.149 32.488L446.52 33.2652L446.529 33.2724L446.538 33.2793L447.149 32.488ZM437.357 32.008L437.924 32.832L437.941 32.8204L437.957 32.808L437.357 32.008ZM438.221 38.44L437.789 39.3415L437.795 39.3448L437.802 39.348L438.221 38.44ZM445.901 40.744L446.151 39.7757L446.135 39.7715L446.118 39.7678L445.901 40.744ZM455.597 43.816L455.218 44.7412L455.228 44.7454L455.238 44.7493L455.597 43.816ZM462.125 48.616L461.355 49.254L461.365 49.266L461.375 49.2776L462.125 48.616ZM465.101 57.448H466.101V57.4394L466.101 57.4308L465.101 57.448ZM462.413 65.896L461.601 65.3128L461.598 65.3168L462.413 65.896ZM454.829 71.656L454.44 70.735L454.433 70.7378L454.829 71.656ZM443.405 72.768C438.848 72.768 434.828 71.9879 431.327 70.4522L430.524 72.2838C434.318 73.9481 438.619 74.768 443.405 74.768V72.768ZM431.327 70.4522C427.81 68.9098 425.074 66.8308 423.079 64.2312L421.492 65.4488C423.721 68.3532 426.744 70.6262 430.524 72.2838L431.327 70.4522ZM423.085 64.24C421.086 61.5744 419.972 58.6203 419.731 55.3581L417.736 55.5059C418.006 59.1556 419.26 62.4736 421.485 65.44L423.085 64.24ZM418.733 56.432H434.957V54.432H418.733V56.432ZM433.963 55.5349C434.184 57.6771 435.198 59.4303 436.949 60.744L438.149 59.144C436.829 58.1537 436.114 56.8989 435.952 55.3291L433.963 55.5349ZM436.949 60.744C438.686 62.0466 440.794 62.672 443.213 62.672V60.672C441.152 60.672 439.484 60.1454 438.149 59.144L436.949 60.744ZM443.213 62.672C445.364 62.672 447.169 62.2725 448.494 61.337L447.341 59.703C446.49 60.3035 445.159 60.672 443.213 60.672V62.672ZM448.503 61.3307C449.882 60.3347 450.645 58.992 450.645 57.352H448.645C448.645 58.272 448.257 59.0413 447.332 59.7093L448.503 61.3307ZM450.645 57.352C450.645 56.4008 450.394 55.5278 449.859 54.7788C449.33 54.0379 448.569 53.4818 447.648 53.0767L446.843 54.9073C447.522 55.2062 447.961 55.5621 448.232 55.9412C448.496 56.3122 448.645 56.7672 448.645 57.352H450.645ZM447.678 53.0905C445.982 52.2762 443.307 51.4246 439.712 50.5259L439.227 52.4661C442.8 53.3594 445.309 54.1718 446.813 54.8935L447.678 53.0905ZM439.696 50.5222C435.882 49.6321 432.727 48.7155 430.22 47.7757L429.518 49.6483C432.132 50.6285 435.377 51.5679 439.242 52.4698L439.696 50.5222ZM430.241 47.7835C427.83 46.8191 425.751 45.3442 423.996 43.3479L422.494 44.6681C424.452 46.8957 426.789 48.5569 429.498 49.6405L430.241 47.7835ZM424.006 43.3591C422.343 41.4093 421.461 38.7493 421.461 35.272H419.461C419.461 39.0907 420.435 42.2547 422.484 44.6569L424.006 43.3591ZM421.461 35.272C421.461 32.3924 422.238 29.8023 423.789 27.4747L422.125 26.3653C420.349 29.0297 419.461 32.0076 419.461 35.272H421.461ZM423.786 27.4795C425.395 25.0965 427.734 23.1916 430.856 21.7836L430.034 19.9604C426.628 21.4964 423.976 23.6235 422.128 26.3605L423.786 27.4795ZM430.85 21.7865C434.023 20.3831 437.815 19.664 442.253 19.664V17.664C437.604 17.664 433.524 18.4169 430.041 19.9575L430.85 21.7865ZM442.253 19.664C448.811 19.664 453.832 21.2861 457.438 24.4117L458.748 22.9003C454.675 19.3699 449.135 17.664 442.253 17.664V19.664ZM457.445 24.417C461.137 27.5647 463.267 31.7373 463.819 37.0081L465.808 36.7999C465.207 31.0627 462.858 26.4033 458.742 22.895L457.445 24.417ZM464.813 35.904H449.645V37.904H464.813V35.904ZM450.636 36.7674C450.346 34.6671 449.388 32.954 447.761 31.6967L446.538 33.2793C447.727 34.198 448.432 35.4289 448.655 37.0406L450.636 36.7674ZM447.778 31.7108C446.21 30.4407 444.174 29.856 441.773 29.856V31.856C443.853 31.856 445.401 32.3593 446.52 33.2652L447.778 31.7108ZM441.773 29.856C439.74 29.856 438.022 30.2597 436.757 31.208L437.957 32.808C438.741 32.2203 439.967 31.856 441.773 31.856V29.856ZM436.791 31.184C435.486 32.0811 434.821 33.3865 434.821 34.984H436.821C436.821 34.0215 437.181 33.3429 437.924 32.832L436.791 31.184ZM434.821 34.984C434.821 35.9356 435.073 36.811 435.6 37.5704C436.121 38.3215 436.873 38.9022 437.789 39.3415L438.654 37.5385C437.969 37.2098 437.521 36.8305 437.243 36.4296C436.97 36.037 436.821 35.5684 436.821 34.984H434.821ZM437.802 39.348C439.566 40.1619 442.21 40.9482 445.684 41.7202L446.118 39.7678C442.68 39.0038 440.205 38.254 438.64 37.532L437.802 39.348ZM445.651 41.7123C449.595 42.7301 452.78 43.7409 455.218 44.7412L455.977 42.8908C453.423 41.8431 450.143 40.8059 446.151 39.7757L445.651 41.7123ZM455.238 44.7493C457.56 45.6425 459.599 47.1342 461.355 49.254L462.895 47.978C460.94 45.6178 458.626 43.9095 455.956 42.8827L455.238 44.7493ZM461.375 49.2776C463.098 51.2303 464.04 53.9229 464.101 57.4652L466.101 57.4308C466.034 53.5491 464.992 50.3537 462.875 47.9544L461.375 49.2776ZM464.101 57.448C464.101 60.3794 463.268 62.9905 461.601 65.3128L463.226 66.4792C465.142 63.8095 466.101 60.7886 466.101 57.448H464.101ZM461.598 65.3168C459.998 67.5685 457.633 69.384 454.44 70.735L455.219 72.577C458.681 71.112 461.372 69.0875 463.228 66.4752L461.598 65.3168ZM454.433 70.7378C451.319 72.0812 447.651 72.768 443.405 72.768V74.768C447.864 74.768 451.812 74.0468 455.225 72.5742L454.433 70.7378Z" fill="#ffffff"/>
</svg>
